<svg width="1024" height="1024" viewBox="0 0 1024 1024" xmlns="http://www.w3.org/2000/svg">
  <defs>
    <linearGradient id="g79" x1="0%" y1="0%" x2="100%" y2="100%">
      <stop offset="0%" stop-color="#3D2B23"/>
      <stop offset="100%" stop-color="#2A1E1A"/>
    </linearGradient>
  </defs>
  <rect width="1024" height="1024" rx="221.867" fill="url(#g79)"/>
  <path d="M704.673 169.151C781.253 162.893 874.659 184.97 904.962 260.04C1001.83 500.064 662.094 747.374 480.075 855.855V527.195C559.805 490.371 689.991 402.238 733.226 323.645C794.053 207.659 621.857 239.188 563.175 264.788C440.122 312.618 296.829 391.561 227.557 509.844C179.356 627.756 367.633 577.453 420.233 553.276C348.882 614.299 210.622 701.929 125.356 638.345C63.8729 592.485 138.681 492.778 179.049 448.339C306.654 307.892 513.201 184.795 704.673 169.151Z" fill="#F8F3EC"/>
  <path d="M531.711 446.392C562.816 446.392 588.031 421.177 588.031 390.073C588.031 358.969 562.816 333.754 531.711 333.754C500.607 333.754 475.392 358.969 475.392 390.073C475.392 421.177 500.607 446.392 531.711 446.392Z" fill="#FF5E54"/>
</svg>
